:FULLY-SPECIFIED
:FORCE-ALL-JOINTS-BE-3DOF
:DEGREES
442
root 2.19424 15.4732 -8.97113 4.74083 6.35847 -12.2935
lfemur -41.6631 9.72944 0.31183
ltibia 60.045 0 0
lfoot -27.3106 -6.94363 0
ltoes -9.88824 0 0
rfemur -15.6348 5.29939 6.4058
rtibia 39.4305 0 0
rfoot -2.27381 -6.96551 0
rtoes -48.5346 0 0
lowerback 4.31805 0.78144 4.8509
upperback 0.706933 1.28646 1.1009
thorax -1.60274 0.620259 -1.67279
lowerneck -7.29933 -0.0538097 5.96093
upperneck 3.1862 -0.619757 -0.0693285
head 2.30978 -0.228959 -1.08986
lclavicle 1.73456e-15 1.54988e-14 0
lhumerus -42.796 -28.5568 99.456
lradius 52.4575 0 0
lwrist 7.81705 0 0
lhand -17.9679 -2.52688 0
lfingers 7.12502 0 0
lthumb 8.30115 27.2853 0
rclavicle 1.73456e-15 1.54988e-14 0
rhumerus -51.4596 -2.77075 -87.0604
rradius 66.9646 0 0
rwrist 12.5503 0 0
rhand -34.6363 -30.2826 0
rfingers 7.12502 0 0
rthumb -7.7935 -780.111 0
443
root 2.22166 15.4989 -8.91341 4.71872 8.10243 -12.2663
lfemur -41.97 9.83036 -0.527413
ltibia 59.8161 0 0
lfoot -27.0142 -6.73179 0
ltoes -8.87609 0 0
rfemur -15.1875 5.05404 6.66493
rtibia 39.6977 0 0
rfoot -0.875665 -6.92112 0
rtoes -48.3377 0 0
lowerback 4.15059 0.751553 4.84145
upperback 0.638575 1.23971 1.14033
thorax -1.58267 0.596839 -1.62359
lowerneck -7.3505 -0.266877 5.79766
upperneck 3.18898 -0.891504 -0.0442605
head 2.31544 -0.365484 -1.06575
lclavicle 8.46438e-16 1.54411e-14 0
lhumerus -42.992 -28.3874 99.7304
lradius 52.4655 0 0
lwrist 7.58332 0 0
lhand -18.0789 -2.90554 0
lfingers 7.12502 0 0
lthumb 8.19406 26.9104 0
rclavicle 8.46438e-16 1.54411e-14 0
rhumerus -51.6662 -2.77131 -86.7699
rradius 66.7589 0 0
rwrist 12.4906 0 0
rhand -34.4907 -30.2926 0
rfingers 7.12502 0 0
rthumb -7.65296 -780.125 0
444
root 2.24909 15.5245 -8.85569 4.69661 9.84639 -12.239
lfemur -42.277 9.93127 -1.36666
ltibia 59.5871 0 0
lfoot -26.7177 -6.51995 0
ltoes -7.86394 0 0
rfemur -14.7402 4.80869 6.92405
rtibia 39.9648 0 0
rfoot 0.522477 -6.87674 0
rtoes -48.1408 0 0
lowerback 3.98314 0.721666 4.832
upperback 0.570217 1.19295 1.17976
thorax -1.5626 0.573419 -1.57438
lowerneck -7.40166 -0.479944 5.63439
upperneck 3.19177 -1.16325 -0.0191924
head 2.32109 -0.502009 -1.04164
lclavicle -4.16813e-17 1.53834e-14 0
lhumerus -43.1881 -28.2181 100.005
lradius 52.4735 0 0
lwrist 7.34959 0 0
lhand -18.1898 -3.28419 0
lfingers 7.12502 0 0
lthumb 8.08697 26.5355 0
rclavicle -4.16813e-17 1.53834e-14 0
rhumerus -51.8729 -2.77186 -86.4795
rradius 66.5533 0 0
rwrist 12.4309 0 0
rhand -34.3451 -30.3026 0
rfingers 7.12502 0 0
rthumb -7.51243 -780.139 0
445
root 2.27651 15.5502 -8.79797 4.6745 11.5903 -12.2118
lfemur -42.5839 10.0322 -2.2059
ltibia 59.3582 0 0
lfoot -26.4213 -6.30811 0
ltoes -6.85178 0 0
rfemur -14.293 4.56334 7.18318
rtibia 40.2319 0 0
rfoot 1.92062 -6.83236 0
rtoes -47.944 0 0
lowerback 3.81568 0.691779 4.82255
upperback 0.501858 1.14619 1.21919
thorax -1.54252 0.55 -1.52517
lowerneck -7.45283 -0.693011 5.47112
upperneck 3.19455 -1.435 0.00587565
head 2.32674 -0.638533 -1.01753
lclavicle -9.298e-16 1.53257e-14 0
lhumerus -43.3841 -28.0488 100.279
lradius 52.4815 0 0
lwrist 7.11587 0 0
lhand -18.3008 -3.66285 0
lfingers 7.12502 0 0
lthumb 7.97989 26.1606 0
rclavicle -9.298e-16 1.53257e-14 0
rhumerus -52.0796 -2.77242 -86.189
rradius 66.3477 0 0
rwrist 12.3712 0 0
rhand -34.1996 -30.3126 0
rfingers 7.12502 0 0
rthumb -7.3719 -780.154 0
446
root 2.30394 15.5758 -8.74025 4.65239 13.3343 -12.1846
lfemur -42.8909 10.1331 -3.04514
ltibia 59.1292 0 0
lfoot -26.1248 -6.09627 0
ltoes -5.83963 0 0
rfemur -13.8457 4.31799 7.4423
rtibia 40.499 0 0
rfoot 3.31876 -6.78798 0
rtoes -47.7471 0 0
lowerback 3.64823 0.661892 4.8131
upperback 0.4335 1.09944 1.25862
thorax -1.52245 0.52658 -1.47596
lowerneck -7.50399 -0.906078 5.30785
upperneck 3.19734 -1.70674 0.0309437
head 2.33239 -0.775058 -0.993413
lclavicle -1.81792e-15 1.5268e-14 0
lhumerus -43.5802 -27.8795 100.554
lradius 52.4895 0 0
lwrist 6.88214 0 0
lhand -18.4117 -4.0415 0
lfingers 7.12502 0 0
lthumb 7.8728 25.7857 0
rclavicle -1.81792e-15 1.5268e-14 0
rhumerus -52.2862 -2.77297 -85.8986
rradius 66.1421 0 0
rwrist 12.3115 0 0
rhand -34.054 -30.3226 0
rfingers 7.12502 0 0
rthumb -7.23137 -780.168 0
447
root 2.33136 15.6015 -8.68254 4.63027 15.0783 -12.1574
lfemur -43.1979 10.234 -3.88438
ltibia 58.9003 0 0
lfoot -25.8283 -5.88443 0
ltoes -4.82748 0 0
rfemur -13.3985 4.07264 7.70143
rtibia 40.7661 0 0
rfoot 4.7169 -6.7436 0
rtoes -47.5502 0 0
lowerback 3.48077 0.632005 4.80365
upperback 0.365142 1.05268 1.29806
thorax -1.50238 0.50316 -1.42675
lowerneck -7.55516 -1.11915 5.14457
upperneck 3.20012 -1.97849 0.0560118
head 2.33804 -0.911582 -0.9693
lclavicle -2.70604e-15 1.52102e-14 0
lhumerus -43.7763 -27.7102 100.828
lradius 52.4974 0 0
lwrist 6.64841 0 0
lhand -18.5226 -4.42016 0
lfingers 7.12502 0 0
lthumb 7.76571 25.4108 0
rclavicle -2.70604e-15 1.52102e-14 0
rhumerus -52.4929 -2.77353 -85.6081
rradius 65.9365 0 0
rwrist 12.2518 0 0
rhand -33.9084 -30.3326 0
rfingers 7.12502 0 0
rthumb -7.09084 -780.183 0
448
root 2.35879 15.6271 -8.62482 4.60816 16.8222 -12.1301
lfemur -43.5048 10.3349 -4.72363
ltibia 58.6714 0 0
lfoot -25.5319 -5.67259 0
ltoes -3.81533 0 0
rfemur -12.9512 3.82729 7.96055
rtibia 41.0333 0 0
rfoot 6.11505 -6.69922 0
rtoes -47.3533 0 0
lowerback 3.31332 0.602118 4.7942
upperback 0.296784 1.00593 1.33749
thorax -1.48231 0.47974 -1.37755
lowerneck -7.60632 -1.33221 4.9813
upperneck 3.2029 -2.25024 0.0810798
head 2.3437 -1.04811 -0.945188
lclavicle -3.59416e-15 1.51525e-14 0
lhumerus -43.9723 -27.5409 101.102
lradius 52.5054 0 0
lwrist 6.41468 0 0
lhand -18.6336 -4.79881 0
lfingers 7.12502 0 0
lthumb 7.65862 25.0359 0
rclavicle -3.59416e-15 1.51525e-14 0
rhumerus -52.6996 -2.77409 -85.3177
rradius 65.7308 0 0
rwrist 12.1921 0 0
rhand -33.7628 -30.3426 0
rfingers 7.12502 0 0
rthumb -6.95031 -780.197 0
449
root 2.38621 15.6528 -8.5671 4.58605 18.5662 -12.1029
lfemur -43.8118 10.4358 -5.56287
ltibia 58.4424 0 0
lfoot -25.2354 -5.46075 0
ltoes -2.80318 0 0
rfemur -12.5039 3.58194 8.21968
rtibia 41.3004 0 0
rfoot 7.51319 -6.65484 0
rtoes -47.1564 0 0
lowerback 3.14586 0.572231 4.78475
upperback 0.228426 0.959173 1.37692
thorax -1.46223 0.45632 -1.32834
lowerneck -7.65749 -1.54528 4.81803
upperneck 3.20569 -2.52198 0.106148
head 2.34935 -1.18463 -0.921075
lclavicle -4.48228e-15 1.50948e-14 0
lhumerus -44.1684 -27.3716 101.377
lradius 52.5134 0 0
lwrist 6.18096 0 0
lhand -18.7445 -5.17747 0
lfingers 7.12502 0 0
lthumb 7.55153 24.661 0
rclavicle -4.48228e-15 1.50948e-14 0
rhumerus -52.9062 -2.77464 -85.0272
rradius 65.5252 0 0
rwrist 12.1324 0 0
rhand -33.6173 -30.3526 0
rfingers 7.12502 0 0
rthumb -6.80978 -780.211 0
450
root 2.41364 15.6784 -8.50938 4.56394 20.3101 -12.0757
lfemur -44.1187 10.5368 -6.40211
ltibia 58.2135 0 0
lfoot -24.9389 -5.24891 0
ltoes -1.79103 0 0
rfemur -12.0567 3.33659 8.4788
rtibia 41.5675 0 0
rfoot 8.91133 -6.61046 0
rtoes -46.9595 0 0
lowerback 2.97841 0.542344 4.7753
upperback 0.160068 0.912417 1.41635
thorax -1.44216 0.4329 -1.27913
lowerneck -7.70865 -1.75835 4.65476
upperneck 3.20847 -2.79373 0.131216
head 2.355 -1.32116 -0.896963
lclavicle -5.3704e-15 1.50371e-14 0
lhumerus -44.3645 -27.2023 101.651
lradius 52.5214 0 0
lwrist 5.94723 0 0
lhand -18.8555 -5.55612 0
lfingers 7.12502 0 0
lthumb 7.44444 24.2861 0
rclavicle -5.3704e-15 1.50371e-14 0
rhumerus -53.1129 -2.7752 -84.7368
rradius 65.3196 0 0
rwrist 12.0727 0 0
rhand -33.4717 -30.3626 0
rfingers 7.12502 0 0
rthumb -6.66925 -780.226 0
451
root 2.44106 15.7041 -8.45167 4.54182 22.0541 -12.0484
lfemur -44.4257 10.6377 -7.24136
ltibia 57.9845 0 0
lfoot -24.6425 -5.03706 0
ltoes -0.778874 0 0
rfemur -11.6094 3.09124 8.73793
rtibia 41.8346 0 0
rfoot 10.3095 -6.56608 0
rtoes -46.7627 0 0
lowerback 2.81096 0.512457 4.76584
upperback 0.0917094 0.865662 1.45578
thorax -1.42209 0.40948 -1.22992
lowerneck -7.75982 -1.97141 4.49148
upperneck 3.21126 -3.06548 0.156284
head 2.36065 -1.45768 -0.87285
lclavicle -6.25851e-15 1.49794e-14 0
lhumerus -44.5605 -27.033 101.925
lradius 52.5294 0 0
lwrist 5.7135 0 0
lhand -18.9664 -5.93478 0
lfingers 7.12502 0 0
lthumb 7.33736 23.9113 0
rclavicle -6.25851e-15 1.49794e-14 0
rhumerus -53.3196 -2.77575 -84.4463
rradius 65.114 0 0
rwrist 12.0131 0 0
rhand -33.3261 -30.3725 0
rfingers 7.12502 0 0
rthumb -6.52872 -780.24 0
452
root 2.46849 15.7297 -8.39395 4.51971 23.7981 -12.0212
lfemur -44.7326 10.7386 -8.0806
ltibia 57.7556 0 0
lfoot -24.346 -4.82522 0
ltoes 0.233277 0 0
rfemur -11.1621 2.84589 8.99705
rtibia 42.1017 0 0
rfoot 11.7076 -6.5217 0
rtoes -46.5658 0 0
lowerback 2.6435 0.48257 4.75639
upperback 0.0233513 0.818906 1.49521
thorax -1.40202 0.386061 -1.18071
lowerneck -7.81098 -2.18448 4.32821
upperneck 3.21404 -3.33723 0.181352
head 2.3663 -1.59421 -0.848738
lclavicle -7.14663e-15 1.49217e-14 0
lhumerus -44.7566 -26.8637 102.2
lradius 52.5374 0 0
lwrist 5.47977 0 0
lhand -19.0774 -6.31343 0
lfingers 7.12502 0 0
lthumb 7.23027 23.5364 0
rclavicle -7.14663e-15 1.49217e-14 0
rhumerus -53.5263 -2.77631 -84.1559
rradius 64.9084 0 0
rwrist 11.9534 0 0
rhand -33.1805 -30.3825 0
rfingers 7.12502 0 0
rthumb -6.38819 -780.255 0
453
root 2.49591 15.7554 -8.33623 4.4976 25.542 -11.994
lfemur -45.0396 10.8395 -8.91984
ltibia 57.5266 0 0
lfoot -24.0495 -4.61338 0
ltoes 1.24543 0 0
rfemur -10.7149 2.60054 9.25618
rtibia 42.3688 0 0
rfoot 13.1058 -6.47732 0
rtoes -46.3689 0 0
lowerback 2.47605 0.452683 4.74694
upperback -0.0450069 0.772151 1.53464
thorax -1.38194 0.362641 -1.13151
lowerneck -7.86215 -2.39755 4.16494
upperneck 3.21683 -3.60897 0.20642
head 2.37195 -1.73073 -0.824625
lclavicle -8.03475e-15 1.4864e-14 0
lhumerus -44.9527 -26.6944 102.474
lradius 52.5454 0 0
lwrist 5.24605 0 0
lhand -19.1883 -6.69209 0
lfingers 7.12502 0 0
lthumb 7.12318 23.1615 0
rclavicle -8.03475e-15 1.4864e-14 0
rhumerus -53.7329 -2.77686 -83.8654
rradius 64.7028 0 0
rwrist 11.8937 0 0
rhand -33.035 -30.3925 0
rfingers 7.12502 0 0
rthumb -6.24766 -780.269 0
454
root 2.52334 15.781 -8.27851 4.47549 27.286 -11.9667
lfemur -45.3465 10.9404 -9.75909
ltibia 57.2977 0 0
lfoot -23.7531 -4.40154 0
ltoes 2.25758 0 0
rfemur -10.2676 2.35519 9.5153
rtibia 42.636 0 0
rfoot 14.5039 -6.43294 0
rtoes -46.172 0 0
lowerback 2.30859 0.422796 4.73749
upperback -0.113365 0.725395 1.57407
thorax -1.36187 0.339221 -1.0823
lowerneck -7.91331 -2.61061 4.00167
upperneck 3.21961 -3.88072 0.231488
head 2.37761 -1.86725 -0.800513
lclavicle -8.92287e-15 1.48063e-14 0
lhumerus -45.1487 -26.5251 102.749
lradius 52.5534 0 0
lwrist 5.01232 0 0
lhand -19.2993 -7.07074 0
lfingers 7.12502 0 0
lthumb 7.01609 22.7866 0
rclavicle -8.92287e-15 1.48063e-14 0
rhumerus -53.9396 -2.77742 -83.575
rradius 64.4971 0 0
rwrist 11.834 0 0
rhand -32.8894 -30.4025 0
rfingers 7.12502 0 0
rthumb -6.10713 -780.283 0
455
root 2.55076 15.8067 -8.2208 4.45337 29.0299 -11.9395
lfemur -45.6535 11.0413 -10.5983
ltibia 57.0688 0 0
lfoot -23.4566 -4.1897 0
ltoes 3.26973 0 0
rfemur -9.82036 2.10984 9.77443
rtibia 42.9031 0 0
rfoot 15.902 -6.38856 0
rtoes -45.9751 0 0
lowerback 2.14114 0.392909 4.72804
upperback -0.181723 0.67864 1.61351
thorax -1.3418 0.315801 -1.03309
lowerneck -7.96448 -2.82368 3.83839
upperneck 3.22239 -4.15247 0.256556
head 2.38326 -2.00378 -0.7764
lclavicle -9.81099e-15 1.47485e-14 0
lhumerus -45.3448 -26.3558 103.023
lradius 52.5613 0 0
lwrist 4.77859 0 0
lhand -19.4102 -7.4494 0
lfingers 7.12502 0 0
lthumb 6.909 22.4117 0
rclavicle -9.81099e-15 1.47485e-14 0
rhumerus -54.1463 -2.77798 -83.2845
rradius 64.2915 0 0
rwrist 11.7743 0 0
rhand -32.7438 -30.4125 0
rfingers 7.12502 0 0
rthumb -5.9666 -780.298 0
